<svg width="1005" height="945" viewBox="0 0 1005 945" fill="none" xmlns="http://www.w3.org/2000/svg">
<path d="M734.996 304.003C728.351 305.139 720.938 310.615 717.833 317.126L743.645 352.889C751.058 351.219 753.696 349.383 757.503 345.877C758.671 344.708 759.74 343.339 760.675 342.003C762.311 339.699 763.28 337.161 764.014 334.456C766.118 326.943 764.014 317.259 757.77 310.982C754.765 307.943 750.891 305.672 746.817 304.504C742.91 303.368 738.87 303.369 734.996 304.037V304.003Z" fill="white" fill-opacity="0.05"/>
<path d="M833.771 627.339C829.129 624.901 823.653 623.433 818.143 621.897C812.667 620.327 806.79 618.991 801.413 615.852C796.872 613.248 792.498 609.742 789.626 605.067C789.292 604.532 789.025 603.998 788.724 603.464V688.08C788.691 696.128 796.171 703.707 805.487 707.547C805.554 707.447 830.899 672.786 840.783 652.651C842.92 648.076 843.722 642.933 842.486 638.225C841.918 635.888 840.816 633.584 839.381 631.747C838.045 630.011 836.041 628.508 833.704 627.339H833.771Z" fill="white" fill-opacity="0.05"/>
<path d="M844.489 627.707C844.489 627.707 835.908 604.6 832.168 589.573C830.465 582.761 828.227 567.367 828.227 567.3C809.261 567.901 788.758 577.652 788.758 592.311C788.758 608.807 812.4 614.884 813.468 615.152C815.438 615.652 817.475 616.12 819.512 616.587C825.089 617.923 830.865 619.125 836.576 621.797C839.38 623.132 842.252 624.936 844.523 627.674L844.489 627.707Z" fill="white" fill-opacity="0.05"/>
<path d="M745.314 136.04C745.515 137.108 745.882 138.945 746.116 139.947C751.158 160.516 760.541 181.052 772.563 197.615C791.195 223.26 814.136 243.095 844.656 251.21C844.122 250.008 843.621 249.073 843.054 248.004C842.486 246.902 841.918 245.834 841.317 244.732C839.514 241.526 837.711 238.387 835.674 235.282C830.865 227.969 825.623 220.989 820.147 214.144C814.637 207.299 808.893 200.587 803.183 193.909C809.561 200.053 815.906 206.096 822.117 212.441C828.328 218.785 834.305 225.364 839.915 232.243C840.649 233.145 841.351 234.113 842.085 235.081C843.555 237.018 844.957 238.955 846.393 240.991C847.795 243.028 849.265 245.333 850.6 247.336C843.822 216.682 832.034 186.362 808.827 164.924C790.761 148.261 772.295 142.184 749.255 136.641C748.286 136.407 746.483 136.274 745.381 136.04H745.314Z" fill="white" fill-opacity="0.05"/>
<path d="M932.678 432.396C929.773 450.06 926.668 467.458 923.128 484.955C920.991 465.788 917.986 449.393 907.901 432.262C890.804 403.211 862.822 386.682 830.799 376.931C829.797 376.631 827.459 375.997 826.357 375.729C826.524 376.765 827.192 379.303 827.426 380.137C836.141 413.463 852.604 437.638 877.447 459.777C893.676 474.236 904.128 486.458 915.014 504.656C914.747 502.286 914.646 500.282 914.346 497.978C914.045 495.674 913.712 493.27 913.244 490.933C912.843 489.029 912.509 487.126 911.942 485.189C908.035 471.799 901.79 460.178 893.709 448.858C903.427 459.41 911.107 470.397 916.817 483.587C917.151 484.321 917.385 485.089 917.652 485.824C918.654 488.562 919.588 491.367 920.39 494.172C920.624 494.94 920.791 495.741 921.024 496.509C921.492 498.379 921.926 500.249 922.327 502.119C922.46 501.885 922.594 501.651 922.727 501.417C923.061 500.85 923.395 500.249 923.729 499.681C924.764 497.844 925.8 496.042 926.801 494.205C930.241 487.861 933.58 481.65 936.652 475.105C943.264 461.047 948.606 446.788 952.78 431.829C950.309 447.323 946.436 462.248 941.427 477.108C940.893 478.711 940.258 480.314 939.657 481.917C938.689 484.555 937.754 487.092 936.719 489.73C935.684 492.368 934.548 495.174 933.48 497.812C933.981 497.244 935.082 495.908 935.617 495.307C957.121 469.595 978.292 440.577 985.939 408.454C993.085 378.368 986.974 350.652 976.522 323.137C963.733 340.668 952.981 357.029 945.735 377.766C939.757 394.863 935.684 414.297 932.678 432.463V432.396Z" fill="white" fill-opacity="0.05"/>
<path d="M914.379 391.691C909.17 376.33 901.123 362.873 891.572 349.516C891.439 349.349 891.272 349.082 891.139 348.915C870.068 321.433 842.419 311.082 808.359 309.612C807.357 309.579 805.187 309.546 804.052 309.546C804.385 310.447 805.554 312.718 805.888 313.452C820.213 343.205 839.815 363.174 867.53 378.901C884.827 388.719 896.848 397.267 910.873 410.457C910.139 408.42 909.671 406.684 908.936 404.714C908.202 402.743 907.501 400.773 906.599 398.836C904.896 395.063 903.226 391.423 900.989 387.817C893.877 376.297 885.095 366.58 875.077 357.464C886.497 365.411 896.481 374.16 905.297 384.912C905.931 385.714 906.532 386.548 907.133 387.383C909.07 390.021 910.907 392.826 912.576 395.597C913.511 397.134 914.446 398.87 915.214 400.339C915.982 401.808 916.483 402.877 917.184 404.246C917.184 404.313 917.218 404.413 917.251 404.379C917.518 403.344 917.819 402.242 918.086 401.174C918.754 398.436 919.455 395.697 920.056 392.926C921.292 387.45 922.56 382.007 923.529 376.43C926.133 361.437 927.603 346.444 927.67 331.217C929.339 346.544 929.54 361.704 928.638 377.065C928.538 378.701 928.337 380.337 928.237 381.973C928.037 384.678 927.736 387.484 927.502 390.155C927.235 392.826 926.701 396.399 926.634 398.336C934.949 382.675 949.441 347.48 951.411 333.254C957.155 291.381 945.835 257.854 923.061 225.865C916.984 245.533 910.773 262.496 908.436 282.865C906.332 301.198 906.666 315.256 908.536 335.792C909.871 350.552 912.977 375.095 914.446 391.591L914.379 391.691Z" fill="white" fill-opacity="0.05"/>
<path d="M867.764 265.669C873.474 278.558 879.284 291.781 883.425 305.572C877.314 294.453 869.968 284.669 861.386 276.321C857.279 272.314 852.871 268.64 848.196 265.268C827.359 250.241 800.946 241.492 769.09 239.188L763.948 238.821L766.519 243.295C789.259 282.932 815.338 293.851 842.953 305.372C856.244 310.915 869.968 316.691 883.592 325.974C882.791 324.305 881.922 322.635 881.021 320.999C880.086 319.329 879.117 317.66 878.082 316.024C876.346 313.286 874.509 310.648 872.472 308.077C864.658 298.126 854.674 289.778 843.555 283.099C855.442 288.242 866.729 295.321 876.312 304.637C876.513 304.838 876.713 305.071 876.947 305.271C879.585 307.876 882.089 310.648 884.427 313.553C884.994 314.254 885.562 314.922 886.096 315.657C886.731 316.492 887.332 317.326 887.933 318.195C887.933 317.059 888 315.957 888 314.822C888 313.92 888.033 313.019 888.066 312.117C888.1 308.811 888.133 305.472 888.066 302.166C888.066 298.026 887.933 293.885 887.733 289.711C887.031 275.018 884.961 260.292 880.687 246.034C886.597 259.691 890.437 274.35 892.875 289.176C893.276 291.58 893.61 294.019 893.943 296.456C894.311 299.161 894.678 301.832 894.979 304.537C895.312 307.342 895.613 310.113 895.914 312.918C912.443 240.324 915.114 212.441 854.307 151.768L850.266 147.727L849.632 153.404C846.226 184.325 845.825 205.629 853.272 229.605C857.045 241.726 862.221 253.38 867.697 265.736L867.764 265.669Z" fill="white" fill-opacity="0.05"/>
<path d="M926.701 579.989C925.299 582.16 923.896 584.297 922.594 586.234C921.292 588.204 919.856 590.441 918.854 591.71C946.469 576.316 980.63 546.831 991.783 519.282C1005.01 486.558 1002.2 466.489 1004.71 434.299C989.779 449.059 979.795 455.436 966.137 472.867C947.538 496.575 932.779 528.999 920.857 558.117C918.821 563.059 916.35 569.404 914.379 574.413C916.216 513.673 893.409 481.282 841.985 451.096C840.917 450.461 839.013 449.459 837.811 448.925C837.811 450.027 837.978 452.632 838.045 453.5C841.551 489.764 852.537 518.681 874.042 547.799C883.692 560.856 893.042 573.912 901.189 587.803C902.458 590.007 902.959 591.376 903.894 593.58C903.861 591.309 903.861 589.005 903.761 586.768C903.661 584.531 903.493 582.427 903.26 580.257C903.193 579.522 903.16 578.82 903.026 578.086C900.288 564.061 895.58 551.038 889.702 538.048C897.249 550.537 903.56 563.193 908.035 577.085C908.269 577.786 908.369 578.52 908.536 579.255C909.037 581.392 909.437 583.562 909.805 585.733C909.938 586.534 910.072 587.335 910.172 588.103C910.272 588.871 910.339 589.573 910.406 590.308C910.673 589.974 910.973 589.64 911.241 589.306C911.842 588.605 912.409 587.904 913.01 587.169C914.379 585.466 915.782 583.83 917.184 582.127C920.457 578.12 923.763 574.179 926.935 570.038C936.685 557.383 945.835 544.36 954.317 530.836C947.304 545.328 939.49 559.386 931.142 573.11C929.74 575.414 928.137 577.785 926.768 579.956L926.701 579.989Z" fill="white" fill-opacity="0.05"/>
<path d="M911.775 629.544C903.46 641.999 894.912 654.755 884.56 667.811C885.863 662.602 891.372 632.181 890.17 616.587C885.696 558.885 843.087 529.868 837.244 523.122L836.375 526.829C834.772 533.742 834.038 540.721 833.904 547.699C833.804 553.877 834.205 560.055 835.006 566.165C835.006 566.199 835.006 566.232 835.006 566.266C836.041 574.113 837.744 581.893 839.881 589.507C841.818 596.419 844.089 603.197 846.526 609.775C846.827 610.577 847.128 611.345 847.428 612.147C849.832 618.491 852.404 624.602 854.975 630.512C854.975 630.546 855.008 630.578 855.042 630.645C857.446 636.122 859.85 641.398 862.121 646.374C864.091 650.681 865.961 654.822 867.664 658.729C869.333 662.535 870.803 666.108 871.971 669.28C872.105 669.614 872.205 669.982 872.339 670.316C872.406 669.915 872.439 669.48 872.472 669.08C872.472 668.98 872.472 668.846 872.506 668.746C872.673 667.21 872.806 665.674 872.906 664.138C872.94 663.503 873.006 662.903 873.04 662.268C873.073 661.534 873.073 660.799 873.107 660.064C873.107 659.263 873.174 658.461 873.174 657.66C873.274 648.243 872.339 638.727 870.803 629.31C870.435 626.972 870.035 624.668 869.567 622.331C870.335 624.635 871.036 626.939 871.704 629.276C874.843 639.929 877.281 650.882 878.149 662.202C878.349 664.506 878.416 666.843 878.449 669.18C878.483 671.217 878.45 673.254 878.383 675.291C878.349 676.493 878.283 677.696 878.182 678.931C878.182 679.232 878.116 679.565 878.116 679.865C878.116 680.133 878.082 680.4 878.049 680.668C879.184 679.866 880.286 679.031 881.421 678.229C882.891 677.161 884.393 676.059 885.863 674.957C891.406 670.816 896.882 666.643 902.225 662.268C914.546 652.217 926.234 641.298 936.719 629.21C927.569 642.366 917.018 654.621 905.698 666.075C903.026 668.78 900.321 671.417 897.617 674.055C895.88 675.725 894.077 677.394 892.307 679.064C890.537 680.7 888.801 682.371 887.031 683.973C968.241 655.089 987.408 616.254 1000.2 549.302L995.022 551.874C944.366 576.984 934.148 596.118 911.775 629.644V629.544Z" fill="white" fill-opacity="0.05"/>
<path d="M895.58 611.712C895.58 617.522 900.288 622.231 906.098 622.231C911.908 622.231 916.617 617.522 916.617 611.712C916.617 605.902 911.908 601.194 906.098 601.194C900.288 601.194 895.58 605.902 895.58 611.712Z" fill="white" fill-opacity="0.05"/>
<path d="M922.527 529.868C927.536 529.868 931.61 525.794 931.61 520.785C931.61 515.776 927.536 511.702 922.527 511.702C917.518 511.702 913.444 515.776 913.444 520.785C913.444 525.794 917.518 529.868 922.527 529.868Z" fill="white" fill-opacity="0.05"/>
<path d="M928.504 426.151C928.504 421.41 924.664 417.57 919.923 417.57C915.181 417.57 911.341 421.41 911.341 426.151C911.341 430.893 915.181 434.733 919.923 434.733C924.664 434.733 928.504 430.893 928.504 426.151Z" fill="white" fill-opacity="0.05"/>
<path d="M896.114 344.775C900.835 344.775 904.662 340.947 904.662 336.226C904.662 331.505 900.835 327.677 896.114 327.677C891.393 327.677 887.566 331.505 887.566 336.226C887.566 340.947 891.393 344.775 896.114 344.775Z" fill="white" fill-opacity="0.05"/>
<path d="M247.136 345.877C250.943 349.383 253.581 351.219 260.994 352.889L286.806 317.126C283.7 310.615 276.321 305.138 269.642 304.003C265.735 303.335 261.695 303.335 257.821 304.47C253.747 305.672 249.874 307.943 246.869 310.948C240.658 317.226 238.521 326.91 240.624 334.423C241.392 337.128 242.327 339.666 243.964 341.97C244.899 343.305 245.934 344.675 247.136 345.844V345.877Z" fill="white" fill-opacity="0.05"/>
<path d="M199.118 707.581C208.468 703.774 215.948 696.162 215.948 688.114V603.498C215.614 604.032 215.346 604.6 215.012 605.101C212.141 609.775 207.8 613.282 203.225 615.886C197.815 618.992 191.972 620.361 186.496 621.93C180.986 623.466 175.51 624.935 170.868 627.373C168.564 628.575 166.56 630.078 165.191 631.781C163.755 633.651 162.687 635.955 162.086 638.259C160.884 642.967 161.652 648.143 163.789 652.684C173.673 672.82 198.984 707.448 199.084 707.581H199.118Z" fill="white" fill-opacity="0.05"/>
<path d="M321.1 419.673C319.43 411.425 314.622 404.947 305.906 404.914H305.806C297.157 405.014 292.382 411.459 290.713 419.673C290.713 419.773 290.679 419.84 290.679 419.941C290.245 422.211 290.045 424.582 290.045 426.986C290.045 427.687 290.045 428.355 290.112 429.057V429.157C290.579 436.971 293.551 443.516 299.662 446.087C299.862 446.187 300.063 446.253 300.263 446.32C300.43 446.387 300.564 446.42 300.73 446.454C300.931 446.521 301.131 446.588 301.332 446.621C302.534 446.988 303.836 447.155 305.238 447.222C305.472 447.222 305.706 447.222 305.973 447.222H306.107C306.307 447.222 306.474 447.222 306.674 447.222C308.077 447.155 309.379 446.955 310.581 446.621C310.782 446.588 310.982 446.521 311.182 446.454C311.349 446.42 311.483 446.353 311.65 446.32C318.161 443.949 321.3 437.238 321.801 429.157V428.456C321.801 425.317 321.634 422.478 321.2 419.941C321.2 419.84 321.167 419.773 321.167 419.673H321.1Z" fill="white" fill-opacity="0.05"/>
<path d="M365.612 184.358C364.443 187.297 362.707 192.907 361.605 197.715C360.569 202.256 360.235 206.264 360.202 206.431C355.861 199.352 349.216 194.509 341.035 193.207C340.935 193.207 337.763 192.873 336.26 192.873C335.258 192.873 333.588 193.04 332.62 193.173C326.242 194.142 321.601 197.114 317.927 200.453C316.592 201.656 314.121 204.861 313.687 205.462L238.287 309.98C241.259 306.674 247.537 301.131 255.584 298.726C259.725 297.491 265.869 296.489 271.245 297.324C276.354 298.126 284.068 299.662 292.216 307.242C300.263 314.722 302.367 324.338 303.068 327.911C303.235 328.713 303.97 337.027 302.166 344.273C300.897 349.416 296.857 357.063 294.954 359.5C292.917 362.105 287.741 369.518 277.222 374.961C260.927 383.376 245.366 379.402 242.561 378.701C239.456 377.933 233.245 375.529 230.139 373.425L198.417 417.336C216.115 437.171 228.603 465.655 239.189 495.34C244.465 510.701 249.039 526.495 253.013 544.326C262.162 585.366 265.669 627.239 263.632 655.689C263.632 655.689 262.697 671.083 259.825 683.338C259.157 686.243 258.923 689.248 258.923 691.786C258.923 698.264 260.493 706.412 265.568 713.892C272.681 724.411 284.702 731.323 298.326 731.323C301.265 731.323 304.17 731.022 306.908 730.388C319.53 727.616 329.281 719.201 334.189 708.616L475.606 814.503C483.186 820.179 491.934 823.519 502.386 823.685H502.42C512.871 823.519 521.587 820.179 529.167 814.503L670.583 708.616C675.458 719.201 685.209 727.616 697.864 730.388C700.603 731.022 703.508 731.323 706.446 731.323C720.104 731.323 732.091 724.411 739.204 713.892C744.246 706.446 745.849 698.264 745.849 691.786C745.849 689.282 745.649 686.243 744.947 683.338C742.076 671.083 741.141 655.689 741.141 655.689C739.07 627.239 742.576 585.366 751.759 544.326C755.733 526.528 760.274 510.734 765.584 495.34C776.202 465.655 788.658 437.171 806.356 417.336L774.633 373.425C771.528 375.529 765.317 377.933 762.211 378.701C759.406 379.369 743.879 383.343 727.55 374.961C717.031 369.552 711.856 362.138 709.819 359.5C707.882 357.029 703.875 349.382 702.606 344.273C700.803 337.027 701.537 328.713 701.704 327.911C702.372 324.338 704.476 314.722 712.557 307.242C720.705 299.662 728.452 298.126 733.527 297.324C738.903 296.489 745.048 297.491 749.188 298.726C757.236 301.131 763.547 306.641 766.485 309.98L691.086 205.462C690.652 204.861 688.18 201.656 686.845 200.453C683.172 197.114 678.53 194.142 672.152 193.173C671.184 193.04 669.548 192.873 668.512 192.873C666.976 192.873 663.804 193.173 663.737 193.207C655.523 194.509 648.878 199.352 644.57 206.431C644.57 206.264 644.203 202.29 643.168 197.715C642.066 192.907 640.329 187.263 639.161 184.358C633.885 171.068 626.438 159.682 617.356 152.135C609.275 145.423 600.726 142.217 593.347 143.519C587.536 144.288 583.028 147.894 579.923 152.435C576.684 157.143 574.948 162.854 574.246 168.497C573.578 174.173 573.378 179.85 574.246 185.494C574.614 188.332 575.115 191.171 575.749 193.976C576.016 195.411 576.417 196.747 576.784 198.083C577.151 199.352 577.686 200.92 578.12 202.356L579.823 207.432C558.118 200.787 534.242 197.715 508.664 197.281L507.128 195.344L502.42 188.599V188.632L497.745 195.311L496.209 197.248C470.664 197.682 446.788 200.787 425.05 207.398L426.753 202.356C427.187 200.954 427.755 199.385 428.089 198.083C428.489 196.78 428.857 195.411 429.124 193.976C429.725 191.171 430.259 188.332 430.626 185.494C431.494 179.85 431.294 174.14 430.626 168.497C429.925 162.854 428.189 157.11 424.95 152.435C421.844 147.927 417.336 144.288 411.526 143.519C404.113 142.217 395.598 145.457 387.517 152.135C378.434 159.682 370.988 171.068 365.712 184.358H365.612ZM270.277 466.355H259.057V408.787L249.507 418.438L245.433 414.397L259.057 400.606H270.277V466.355ZM303.869 480.346H296.556C296.556 480.346 309.813 463.55 315.423 449.693C312.919 451.028 309.78 451.997 305.906 452.164C305.506 452.164 305.105 452.197 304.671 452.197C299.929 452.197 295.822 451.162 292.382 449.292C291.314 448.758 290.279 448.157 289.277 447.456C286.806 445.719 284.669 443.449 283.066 440.811C281.463 438.206 280.328 435.234 279.76 432.195C279.159 429.156 279.126 426.017 279.56 422.945C280.361 416.801 283.266 410.958 287.641 406.617C291.581 402.743 296.79 400.272 302.033 399.771C302.834 399.671 303.636 399.571 304.47 399.537C304.905 399.537 305.372 399.504 305.806 399.504C306.307 399.504 306.841 399.504 307.342 399.537C308.244 399.571 309.145 399.671 310.014 399.771C312.485 400.039 314.922 400.673 317.293 401.575C319.864 402.61 322.302 404.145 324.372 406.082C326.476 408.019 328.212 410.39 329.481 412.961C330.784 415.532 331.652 418.304 332.119 421.075C332.253 421.776 332.353 422.478 332.42 423.179C332.52 423.881 332.587 424.581 332.62 425.283C332.653 425.984 332.687 426.686 332.62 427.387C332.62 428.088 332.62 428.789 332.553 429.49C332.52 430.358 332.42 431.26 332.32 432.128C332.253 433.297 331.919 435.835 330.583 439.708C327.878 447.689 321.066 461.314 303.836 480.28L303.869 480.346ZM458.275 764.581C457.14 770.425 456.372 777.07 457.507 783.081C458.576 789.125 460.045 795.002 463.417 800.378C452.031 786.053 452.398 771.327 452.932 764.581C453.467 757.903 455.57 751.024 459.01 745.147C461.214 741.407 463.551 738.101 466.656 734.996C424.081 717.932 373.258 698.799 311.85 682.103C360.87 687.98 423.647 704.008 483.52 732.625C467.191 740.539 460.011 755.632 458.275 764.581ZM717.466 469.694C718.534 470.496 719.636 471.164 720.805 471.732C722.441 472.5 724.144 473.067 725.914 473.401C729.387 474.103 732.96 474.002 736.265 473.067C739.538 472.132 742.51 470.429 744.714 467.958C745.281 467.357 745.782 466.69 746.25 466.022C746.717 465.354 747.185 464.586 747.485 463.985C748.12 462.615 748.453 460.98 748.654 459.277C749.088 455.937 748.954 452.231 748.453 448.991C747.752 445.853 745.983 442.881 743.378 440.71C742.109 439.642 740.606 438.74 739.037 438.206C737.534 437.705 735.631 437.538 733.828 437.438C732.024 437.371 730.221 437.437 728.452 437.805C727.583 438.005 726.715 438.239 725.88 438.64C725.079 439.007 724.278 439.508 723.71 440.276L720.371 436.67L722.341 415.466L722.741 411.158L723.71 400.64H759.339L758.672 411.86H728.452L726.482 432.863C728.752 432.028 731.624 431.36 735.063 431.36C750.29 431.36 760.541 440.376 760.541 454.902C760.541 471.598 747.752 481.115 732.626 481.115C722.04 481.115 715.996 476.273 713.625 473.869L717.499 469.728L717.466 469.694ZM671.418 469.261C673.488 470.897 675.692 472.232 678.096 473C681.235 474.035 684.541 474.236 687.78 473.802C688.581 473.702 689.449 473.568 690.251 473.435C691.052 473.268 691.82 473.1 692.555 472.833C694.058 472.332 695.393 471.632 696.629 470.797C697.831 469.928 698.833 468.86 699.634 467.591C700.035 466.99 700.402 466.322 700.703 465.654C700.97 464.986 701.237 464.319 701.404 463.584C701.771 462.115 701.938 460.512 702.072 458.909C702.205 457.306 702.205 455.67 702.072 454.034C701.938 452.431 701.871 450.795 701.437 449.426C701.003 447.99 700.369 446.62 699.501 445.351C697.764 442.88 695.16 440.843 692.121 440.276C690.585 439.942 688.915 439.975 687.346 440.343C686.544 440.543 685.776 440.81 685.008 441.211C684.24 441.545 683.506 441.979 682.871 442.547L682.804 442.48L678.931 438.306L699.267 411.826H670.149L670.817 400.606H710.687V406.35L688.748 435C689.717 434.767 690.818 434.633 692.054 434.633C704.843 434.633 713.893 443.181 713.893 456.705C713.893 472.066 702.907 481.082 688.047 481.082C676.393 481.082 669.848 475.706 667.611 473.435L671.518 469.261H671.418ZM692.856 682.103C631.447 698.799 580.624 717.932 538.049 734.996C541.155 738.068 543.492 741.374 545.696 745.147C549.135 750.991 551.239 757.903 551.773 764.581C552.308 771.36 552.675 786.053 541.288 800.378C544.661 795.002 546.13 789.091 547.199 783.081C548.334 777.07 547.566 770.425 546.43 764.581C544.661 755.599 537.481 740.539 521.186 732.625C581.058 704.041 643.836 687.98 692.856 682.103ZM502.086 237.518C587.136 237.518 656.324 336.26 656.324 457.64C656.324 579.021 587.136 677.762 502.086 677.762C417.036 677.762 347.847 579.021 347.847 457.64C347.847 336.26 417.036 237.518 502.086 237.518Z" fill="white" fill-opacity="0.05"/>
<path d="M588.538 142.118C585.733 142.886 570.406 146.358 548.835 148.729C538.85 149.798 527.363 150.599 515.843 150.866C511.402 150.966 506.76 151.133 502.286 151.067H502.252C497.811 151.167 493.17 150.966 488.729 150.866C477.242 150.599 465.755 149.798 455.737 148.729C434.166 146.392 418.839 142.886 416.034 142.118C425.784 144.722 431.06 151.701 434.266 159.882C439.241 172.471 437.438 188.833 435 197.749C449.66 192.106 473.402 188.633 491.166 188.032L498.346 177.613L502.186 172.037H502.219L506.059 177.58L513.239 187.999C531.003 188.6 554.745 192.072 569.404 197.715C566.967 188.8 565.197 172.471 570.139 159.848C573.344 151.667 578.621 144.689 588.371 142.084L588.538 142.118Z" fill="white" fill-opacity="0.05"/>
<path d="M185.16 616.587C187.197 616.12 189.2 615.652 191.204 615.152C192.273 614.884 215.914 608.807 215.914 592.311C215.914 577.618 195.411 567.868 176.445 567.3C176.445 567.367 174.207 582.728 172.504 589.573C168.764 604.6 160.183 627.707 160.183 627.707C162.453 624.969 165.325 623.166 168.13 621.83C173.84 619.159 179.583 617.956 185.193 616.621L185.16 616.587Z" fill="white" fill-opacity="0.05"/>
<path d="M497.377 568.168C497.377 568.168 497.377 568.168 497.344 568.168C489.463 560.288 479.746 550.004 485.222 537.916C485.289 537.782 487.46 534.075 489.897 532.005L489.53 512.704C482.551 516.311 476.173 521.553 472.333 528.499C468.293 535.778 467.825 544.761 470.229 552.641C470.597 553.877 471.064 555.046 471.565 556.181C471.565 556.214 471.598 556.248 471.632 556.281C474.337 562.158 479.078 566.732 483.954 570.74C487.894 573.979 492.034 576.984 495.841 580.357C498.813 582.961 501.752 585.699 504.022 588.938C505.658 591.242 507.061 593.714 508.263 596.285C509.031 597.921 509.532 599.624 510.1 601.327C511.936 606.603 512.637 612.146 512.704 617.689C512.704 619.125 512.704 620.595 512.637 622.097C512.637 622.197 512.637 622.264 512.637 622.364C512.838 621.863 513.072 621.329 513.272 620.761C513.773 619.325 514.274 617.656 514.708 615.752C515.476 612.279 516.043 608.073 516.043 602.964C516.043 586.468 506.126 576.75 497.377 568.168Z" fill="white" fill-opacity="0.05"/>
<path d="M519.383 324.94C519.182 324.907 519.015 324.873 518.815 324.84L518.281 349.917C519.349 350.084 520.451 350.251 521.553 350.451C521.587 350.451 521.653 350.451 521.687 350.451C522.188 350.551 522.655 350.652 523.123 350.752C523.223 350.752 523.29 350.786 523.356 350.786C523.791 350.886 524.225 350.985 524.659 351.086C524.792 351.086 524.892 351.119 525.026 351.186C525.427 351.286 525.794 351.386 526.195 351.487C526.328 351.52 526.495 351.587 526.629 351.62C526.996 351.721 527.33 351.82 527.697 351.92C527.864 351.954 528.031 352.021 528.198 352.087C528.499 352.188 528.833 352.288 529.133 352.388C529.334 352.455 529.501 352.522 529.701 352.555C529.968 352.656 530.269 352.755 530.536 352.855C530.736 352.922 530.936 352.989 531.103 353.089C531.337 353.19 531.604 353.257 531.838 353.357C532.038 353.457 532.239 353.523 532.406 353.623C532.639 353.724 532.84 353.791 533.04 353.891C533.241 353.991 533.441 354.058 533.608 354.158C533.775 354.258 533.975 354.325 534.142 354.425C534.309 354.525 534.509 354.659 534.676 354.759C534.81 354.859 534.977 354.926 535.11 355.026C535.277 355.127 535.444 355.26 535.611 355.393C535.712 355.493 535.845 355.56 535.945 355.627C536.112 355.761 536.246 355.894 536.413 356.061C536.48 356.128 536.546 356.195 536.613 356.228C536.78 356.428 536.98 356.662 537.081 356.862C538.583 359.3 539.752 360.936 540.854 362.005C541.188 362.339 541.522 362.606 541.856 362.84C542.19 363.073 542.757 363.441 543.425 363.808C546.497 365.545 552.341 368.416 555.046 369.418C555.513 369.585 555.914 369.719 556.148 369.752C556.515 369.819 556.982 369.886 557.517 369.953C557.717 369.953 557.917 369.986 558.118 370.02C558.285 370.02 558.485 370.053 558.652 370.086C561.323 370.42 565.03 370.954 568.269 372.491C568.369 372.524 568.436 372.557 568.503 372.591C571.207 373.893 573.345 374.794 574.814 375.395C574.847 375.395 574.914 375.429 574.947 375.429C575.248 375.562 575.548 375.663 575.816 375.763C575.916 375.796 575.983 375.83 576.083 375.863C576.25 375.93 576.45 375.996 576.584 376.029C576.684 376.063 576.784 376.096 576.884 376.13C576.984 376.13 577.084 376.197 577.151 376.23C577.251 376.23 577.285 376.263 577.385 376.263C577.418 376.263 577.485 376.263 577.519 376.263H577.585C578.721 376.03 579.889 375.763 581.058 375.462C581.325 375.629 581.592 375.83 581.726 375.963C582.294 376.598 582.761 377.232 583.195 377.866C585.132 380.738 585.9 383.677 586.534 386.348C587.169 388.886 587.737 391.29 589.273 393.227C591.143 395.498 593.38 396.667 595.985 396.733H596.252C598.389 396.733 600.325 395.965 601.461 395.197C600.092 395.53 597.788 395.731 595.818 394.562L595.317 394.296L595.851 394.162C595.851 394.162 596.018 394.162 596.151 394.129C597.12 393.962 599.257 393.595 600.793 391.825C597.187 393.127 595.25 392.693 593.313 391.557C590.775 390.055 589.907 386.849 589.005 383.41C588.371 381.039 587.703 378.634 586.434 376.864C585.766 375.929 584.965 375.162 583.863 374.694C586.401 373.893 588.605 372.958 589.907 372.023C589.941 372.023 589.974 371.989 590.007 371.922C590.141 371.822 590.274 371.722 590.375 371.656C590.475 371.556 590.542 371.488 590.642 371.388C590.642 371.355 590.709 371.321 590.742 371.288C590.842 371.154 590.909 371.055 590.976 370.921C591.042 370.721 591.076 370.454 591.076 370.12C591.076 370.086 591.076 370.019 591.076 369.986C591.042 369.285 590.809 368.35 590.441 367.315C590.408 367.214 590.341 367.08 590.308 366.98C590.174 366.546 590.007 366.079 589.807 365.612C589.573 365.044 589.34 364.443 589.106 363.875C588.738 363.007 588.371 362.205 588.037 361.437C587.67 360.669 587.336 359.934 587.069 359.367C586.434 357.998 585.9 356.896 585.666 356.195C585.266 355.059 584.998 353.924 584.765 352.822C584.498 351.553 584.264 350.351 583.763 349.383C583.596 349.049 583.396 348.748 583.162 348.481C583.028 348.314 582.795 348.08 582.527 347.813C579.322 344.441 568.336 334.59 562.058 332.92C562.058 332.92 562.058 332.92 562.025 332.92C560.288 332.453 558.318 332.553 556.214 332.653C556.181 332.653 556.148 332.653 556.114 332.653C553.576 332.787 550.938 332.92 548.334 332.119C548.2 332.086 548.1 332.052 548 332.019C546.23 331.484 544.527 330.984 542.891 330.516C542.256 330.349 541.689 330.183 541.088 330.016C539.986 329.715 538.884 329.381 537.849 329.114C537.181 328.947 536.546 328.78 535.912 328.613C535.01 328.379 534.109 328.145 533.274 327.945C532.606 327.778 531.938 327.611 531.27 327.444C530.536 327.277 529.801 327.077 529.133 326.91C528.432 326.743 527.798 326.609 527.13 326.442C526.562 326.309 525.994 326.175 525.427 326.075C524.726 325.941 524.058 325.775 523.423 325.641C522.989 325.541 522.555 325.474 522.154 325.374C521.486 325.24 520.785 325.107 520.184 325.007C519.884 324.973 519.616 324.907 519.349 324.84L519.383 324.94ZM564.195 345.409C564.696 344.34 567.367 343.94 568.269 344.141C569.471 344.408 574.246 348.648 573.545 352.054C573.011 354.592 566.666 350.819 565.731 349.784C565.197 349.216 563.527 346.778 564.195 345.409Z" fill="white" fill-opacity="0.05"/>
<path d="M555.28 460.679C550.638 446.788 540.687 437.739 528.132 430.927C513.038 422.712 497.778 418.839 481.783 412.494C466.89 406.584 447.022 399.838 447.924 380.538C448.959 359.2 468.059 352.688 486.325 349.683C486.325 347.613 486.191 343.472 486.158 341.402C486.024 334.556 485.891 325.874 485.857 323.704C483.72 324.004 481.516 323.971 479.312 324.405C459.611 328.412 439.909 333.054 427.721 350.484C415.867 367.414 415.199 389.587 426.553 406.818C437.872 424.048 457.54 429.19 475.806 435.635C485.857 439.174 495.808 441.044 505.692 444.951C513.84 448.19 522.221 451.229 528.466 457.907C534.71 464.585 537.348 473.201 534.51 482.217C531.504 491.867 523.524 497.244 515.009 501.885C514.975 502.72 514.975 503.622 514.942 504.456C514.875 510.367 514.875 516.277 514.608 522.154C515.543 520.952 519.817 519.716 520.685 519.282C523.29 517.913 524.959 517.078 526.996 515.743C530.903 513.205 534.576 511.101 538.016 507.962C549.236 497.677 555.847 486.057 556.582 470.73C556.749 467.157 556.348 463.951 555.213 460.579L555.28 460.679Z" fill="white" fill-opacity="0.05"/>
<path d="M499.347 564.095C502.72 567.4 506.193 570.806 509.265 574.68L511.769 452.231C505.992 449.693 499.447 447.556 492.602 445.519L494.739 559.387C496.208 560.923 497.744 562.458 499.381 564.061L499.347 564.095Z" fill="white" fill-opacity="0.05"/>
<path d="M495.207 585.733L495.708 613.015L496.108 633.852C496.108 634.019 496.108 634.252 496.175 634.519C496.676 638.627 500.049 653.886 501.651 656.591C501.651 656.591 501.651 656.625 501.651 656.658H501.752C501.752 656.658 501.952 656.658 502.052 656.691C502.386 656.691 502.753 656.691 503.02 656.691C503.187 656.458 503.354 656.024 503.521 655.557C505.291 650.882 507.929 636.356 508.029 633.852L508.463 613.015L508.564 607.906C508.564 607.906 504.623 594.114 495.173 585.766L495.207 585.733Z" fill="white" fill-opacity="0.05"/>
<path d="M483.219 281.497C483.352 286.038 485.022 290.212 487.927 293.517C488.395 294.052 488.895 294.552 489.43 295.053L489.897 295.488L492.001 411.091C492.903 411.392 493.737 411.692 494.639 412.026C500.516 414.063 506.56 416.167 512.504 418.438L514.941 295.521L515.409 295.087C516.611 293.985 517.613 292.75 518.514 291.381C518.681 291.147 518.848 290.913 518.982 290.679C519.015 290.613 519.049 290.546 519.082 290.479C520.585 287.808 521.486 284.768 521.586 281.663C521.653 280.26 521.586 278.825 521.286 277.356C520.05 270.744 515.342 265.301 509.131 263.031C508.23 262.697 507.295 262.43 506.36 262.263C506.059 262.196 505.792 262.196 505.491 262.129C500.883 261.428 496.309 262.329 492.435 264.7C491.7 265.168 490.966 265.635 490.265 266.203C485.79 269.876 483.252 275.252 483.252 280.995C483.252 281.029 483.252 281.096 483.252 281.129C483.252 281.263 483.252 281.396 483.252 281.53L483.219 281.497Z" fill="white" fill-opacity="0.05"/>
<path d="M158.279 240.991C159.682 238.955 161.084 237.018 162.587 235.081C163.322 234.113 164.023 233.145 164.757 232.243C170.367 225.364 176.345 218.752 182.555 212.441C188.766 206.096 195.111 200.02 201.489 193.909C195.779 200.587 190.002 207.299 184.526 214.144C179.049 220.989 173.807 227.969 168.998 235.282C166.961 238.387 165.158 241.526 163.355 244.732C162.754 245.834 162.186 246.902 161.618 248.004C161.051 249.106 160.583 250.008 160.016 251.21C190.536 243.095 213.477 223.294 232.11 197.615C244.131 181.086 253.514 160.516 258.556 139.947C258.79 138.945 259.157 137.108 259.358 136.04C258.256 136.274 256.452 136.407 255.484 136.641C232.443 142.184 213.978 148.261 195.912 164.924C172.705 186.362 160.917 216.682 154.139 247.336C155.474 245.333 156.91 243.028 158.346 240.991H158.279Z" fill="white" fill-opacity="0.05"/>
<path d="M68.9884 495.24C69.5227 495.875 70.6246 497.177 71.1254 497.744C70.0569 495.14 68.9216 492.301 67.8864 489.663C66.8512 487.025 65.9163 484.488 64.948 481.85C64.3469 480.247 63.7125 478.677 63.1782 477.041C58.1693 462.181 54.2958 447.255 51.8247 431.761C55.9988 446.721 61.375 460.979 67.9532 475.038C71.0253 481.582 74.3645 487.793 77.8039 494.138C78.8057 496.008 79.8409 497.777 80.876 499.614C81.2099 500.215 81.5438 500.783 81.8777 501.35C82.0113 501.584 82.1449 501.818 82.2784 502.051C82.6791 500.181 83.1133 498.312 83.5808 496.442C83.7811 495.64 83.9815 494.872 84.2152 494.104C85.05 491.299 85.9517 488.528 86.9534 485.756C87.2206 485.022 87.4543 484.254 87.7882 483.519C93.4983 470.329 101.178 459.343 110.896 448.791C102.781 460.144 96.5704 471.732 92.6635 485.122C92.0958 487.092 91.7618 488.962 91.3611 490.865C90.8936 493.203 90.5598 495.607 90.2592 497.911C89.9587 500.215 89.8585 502.252 89.5913 504.589C100.477 486.39 110.929 474.202 127.158 459.71C152.001 437.571 168.464 413.362 177.179 380.07C177.413 379.235 178.081 376.697 178.248 375.662C177.146 375.929 174.808 376.563 173.807 376.864C141.817 386.614 113.801 403.144 96.7039 432.195C86.6195 449.325 83.6142 465.721 81.4771 484.888C77.9375 467.391 74.8321 449.993 71.9269 432.329C68.9216 414.163 64.8478 394.696 58.8706 377.633C51.6244 356.896 40.8721 340.534 28.0829 323.003C17.5978 350.518 11.487 378.234 18.6663 408.32C26.3131 440.443 47.4838 469.461 68.9884 495.173V495.24Z" fill="white" fill-opacity="0.05"/>
<path d="M78.0377 398.403C77.9709 396.466 77.4366 392.892 77.1694 390.221C76.9023 387.55 76.6352 384.745 76.4348 382.04C76.3012 380.437 76.1009 378.801 76.0341 377.131C75.1325 361.771 75.3663 346.578 77.0025 331.284C77.1027 346.511 78.5385 361.504 81.1431 376.497C82.1115 382.074 83.3804 387.483 84.616 392.993C85.2504 395.764 85.9182 398.502 86.5861 401.241C86.8532 402.309 87.1204 403.411 87.4209 404.446C87.4209 404.479 87.4543 404.38 87.4877 404.313C88.1556 402.944 88.6565 401.875 89.4579 400.406C90.2259 398.936 91.1608 397.2 92.0958 395.664C93.7654 392.893 95.602 390.088 97.5387 387.45C98.1398 386.615 98.7075 385.78 99.3754 384.979C108.191 374.193 118.175 365.445 129.595 357.531C119.578 366.647 110.795 376.363 103.683 387.884C101.446 391.49 99.8094 395.13 98.073 398.903C97.1714 400.84 96.4702 402.844 95.7356 404.78C95.001 406.75 94.5334 408.487 93.7988 410.524C107.824 397.3 119.811 388.752 137.142 378.968C164.891 363.24 184.459 343.272 198.784 313.519C199.118 312.818 200.287 310.514 200.621 309.612C199.519 309.612 197.315 309.613 196.313 309.679C162.253 311.149 134.604 321.467 113.534 348.982C113.4 349.149 113.2 349.416 113.1 349.583C103.549 362.94 95.4685 376.397 90.2927 391.758C91.7619 375.262 94.834 350.751 96.2031 335.959C98.073 315.422 98.4069 301.365 96.3032 283.032C93.9658 262.63 87.7548 245.7 81.6774 226.032C58.9039 258.021 47.584 291.547 53.3274 333.421C55.2976 347.646 69.7564 382.842 78.1044 398.503L78.0377 398.403Z" fill="white" fill-opacity="0.05"/>
<path d="M109.56 304.437C109.86 301.732 110.228 299.061 110.595 296.356C110.929 293.918 111.263 291.514 111.664 289.077C114.101 274.251 117.941 259.624 123.852 245.933C119.544 260.192 117.507 274.918 116.806 289.611C116.606 293.751 116.505 297.892 116.472 302.066C116.472 305.372 116.472 308.678 116.472 312.017C116.472 312.918 116.505 313.82 116.539 314.722C116.539 315.857 116.572 316.959 116.606 318.094C117.207 317.26 117.808 316.391 118.442 315.557C118.976 314.855 119.544 314.154 120.112 313.452C122.449 310.547 124.954 307.776 127.592 305.171C127.792 304.971 127.992 304.737 128.226 304.537C137.776 295.221 149.096 288.175 160.984 282.999C149.864 289.678 139.88 298.026 132.066 307.976C130.063 310.548 128.193 313.185 126.456 315.923C125.421 317.56 124.453 319.229 123.518 320.899C122.616 322.535 121.781 324.172 120.947 325.875C134.604 316.592 148.295 310.848 161.618 305.271C189.234 293.751 215.313 282.832 238.053 243.196L240.624 238.721L235.482 239.088C203.626 241.392 177.212 250.141 156.376 265.167C151.701 268.54 147.293 272.213 143.186 276.22C134.604 284.602 127.258 294.352 121.147 305.472C125.288 291.681 131.098 278.458 136.808 265.568C142.284 253.213 147.46 241.526 151.233 229.438C158.713 205.462 158.279 184.158 154.873 153.237L154.239 147.56L150.198 151.6C89.391 212.274 92.0623 240.157 108.591 312.751C108.859 309.946 109.192 307.175 109.526 304.37L109.56 304.437Z" fill="white" fill-opacity="0.05"/>
<path d="M85.7847 591.71C84.7829 590.441 83.347 588.204 82.0447 586.234C80.7424 584.264 79.3065 582.16 77.9375 579.989C76.535 577.819 74.9656 575.481 73.5631 573.144C65.215 559.419 57.4012 545.328 50.3889 530.869C58.8705 544.427 68.02 557.416 77.7705 570.072C80.9428 574.179 84.2486 578.153 87.521 582.16C88.9235 583.863 90.2926 585.499 91.695 587.202C92.2961 587.903 92.8638 588.605 93.4648 589.339C93.732 589.673 94.0325 590.007 94.2996 590.341C94.3998 589.573 94.4332 588.905 94.5334 588.137C94.6336 587.369 94.7672 586.534 94.9008 585.766C95.2681 583.596 95.6687 581.425 96.1696 579.288C96.3365 578.554 96.4368 577.853 96.6705 577.118C101.145 563.193 107.456 550.571 115.003 538.082C109.126 551.071 104.418 564.128 101.679 578.119C101.546 578.854 101.512 579.555 101.446 580.29C101.212 582.494 101.045 584.598 100.945 586.801C100.845 589.039 100.845 591.343 100.811 593.614C101.746 591.41 102.214 590.041 103.516 587.837C111.63 573.946 121.013 560.889 130.664 547.833C152.135 518.715 163.154 489.797 166.661 453.533C166.727 452.665 166.894 450.06 166.894 448.958C165.692 449.492 163.789 450.527 162.72 451.128C111.296 481.348 88.4894 513.706 90.3259 574.446C88.3558 569.438 85.8848 563.093 83.8478 558.151C71.8934 529.033 57.1675 496.609 38.568 472.9C24.8772 455.469 14.8929 449.092 0 434.333C2.50442 466.523 -0.300547 486.591 12.9228 519.316C24.0758 546.898 58.236 576.383 85.8514 591.743L85.7847 591.71Z" fill="white" fill-opacity="0.05"/>
<path d="M112.298 678.998C110.528 677.328 108.758 675.692 106.989 673.989C104.25 671.351 101.546 668.713 98.9077 666.008C87.5877 654.521 77.0357 642.299 67.8862 629.143C78.3714 641.231 90.0587 652.15 102.38 662.201C107.723 666.576 113.2 670.783 118.743 674.89C120.212 675.992 121.681 677.094 123.184 678.163C124.286 678.964 125.421 679.799 126.556 680.601C126.556 680.333 126.523 680.066 126.49 679.799C126.49 679.499 126.423 679.165 126.39 678.864C126.289 677.662 126.256 676.46 126.189 675.224C126.122 673.187 126.089 671.15 126.122 669.113C126.156 666.776 126.256 664.439 126.423 662.135C127.291 650.815 129.729 639.862 132.868 629.209C133.569 626.872 134.27 624.568 135.005 622.264C134.571 624.568 134.17 626.905 133.769 629.243C132.233 638.693 131.298 648.176 131.398 657.593C131.398 658.394 131.432 659.196 131.465 659.997C131.465 660.732 131.465 661.467 131.532 662.201C131.532 662.836 131.632 663.436 131.665 664.071C131.766 665.607 131.899 667.143 132.066 668.679C132.066 668.779 132.066 668.913 132.1 669.013C132.133 669.447 132.2 669.848 132.233 670.249C132.367 669.915 132.467 669.581 132.6 669.213C133.769 666.008 135.238 662.468 136.908 658.662C138.611 654.788 140.481 650.648 142.451 646.307C144.722 641.331 147.126 636.055 149.53 630.579C149.53 630.546 149.564 630.512 149.597 630.445C152.168 624.568 154.739 618.424 157.144 612.08C157.444 611.312 157.745 610.51 158.045 609.709C160.483 603.131 162.754 596.352 164.69 589.44C166.827 581.826 168.497 574.013 169.566 566.199C169.566 566.165 169.566 566.132 169.566 566.098C170.367 559.954 170.768 553.777 170.668 547.632C170.567 540.653 169.799 533.675 168.197 526.762L167.328 523.055C161.485 529.801 118.876 558.818 114.402 616.52C113.2 632.114 118.709 662.535 120.012 667.744C109.66 654.688 101.112 641.932 92.7969 629.477C70.4241 595.951 60.206 576.851 9.55002 551.706L4.37427 549.135C17.1635 616.12 36.2973 654.955 117.541 683.806C115.771 682.17 114.001 680.534 112.265 678.897L112.298 678.998Z" fill="white" fill-opacity="0.05"/>
<path d="M610.109 899.253L624.001 895.479L611.278 876.312L610.109 899.253Z" fill="white" fill-opacity="0.05"/>
<path d="M337.929 851.969C329.615 848.396 322.035 853.037 316.759 865.326C311.449 877.681 313.253 886.196 321.634 889.836C330.082 893.476 337.595 888.968 342.905 876.613C348.214 864.324 346.311 855.609 337.929 852.002V851.969Z" fill="white" fill-opacity="0.05"/>
<path d="M294.954 830.765L291.681 828.895L282.732 844.489L288.075 847.561C290.212 848.764 295.388 849.598 298.994 843.287C302.033 837.978 299.829 833.57 294.954 830.798V830.765Z" fill="white" fill-opacity="0.05"/>
<path d="M756.501 832.201L768.121 823.652L749.255 810.128L756.501 832.201Z" fill="white" fill-opacity="0.05"/>
<path d="M850.466 649.512C849.531 651.549 840.682 669.681 823.586 694.124C811.331 711.655 795.002 732.425 773.297 752.961C743.444 781.211 705.611 809.661 656.324 830.465C610.877 849.632 559.487 861.953 502.319 861.953C445.152 861.953 393.761 849.632 348.314 830.465C299.027 809.661 261.194 781.211 231.341 752.961C209.636 732.425 193.307 711.655 181.052 694.124C163.922 669.681 155.107 651.583 154.172 649.512L111.229 711.488C97.5051 729.821 142.351 780.743 166.059 805.22C192.272 832.267 230.106 861.854 273.215 885.996C330.616 918.12 391.557 936.251 452.531 942.429C469.094 944.098 485.757 944.699 502.319 945C518.882 944.699 535.544 944.098 552.107 942.429C613.081 936.285 674.055 918.12 731.423 885.996C774.533 861.887 812.366 832.267 838.579 805.22C862.321 780.743 907.167 729.821 893.442 711.488L850.5 649.512H850.466ZM175.242 766.986C174.474 768.455 173.406 769.724 172.204 770.726C170.968 771.828 169.499 772.629 168.03 773.197C165.058 774.332 161.785 774.633 158.713 773.731C155.641 772.796 153.203 770.859 151.2 768.689C149.23 766.452 147.694 763.88 146.725 761.109C145.79 758.371 145.456 755.265 146.458 752.527H146.492L149.764 752.093C149.764 752.093 147.694 758.003 153.27 764.582C157.344 769.424 162.72 769.29 166.527 766.084C167.261 765.483 167.796 764.816 168.23 764.148C168.898 763.046 169.198 761.743 169.165 760.441C169.165 759.105 168.964 757.837 168.497 756.568C168.096 755.299 167.662 754.03 167.195 752.794L165.725 749.021C164.757 746.483 164.056 743.545 164.79 740.439C165.124 738.903 165.859 737.467 166.794 736.299C167.762 735.13 168.831 734.128 170.066 733.293C172.504 731.623 175.509 730.655 178.481 730.822C181.453 730.955 184.258 732.192 186.429 733.995C188.632 735.764 190.302 738.102 191.437 740.606C191.972 741.875 192.372 743.177 192.606 744.513C192.807 745.682 192.873 746.817 192.84 747.986C192.84 748.086 192.84 748.186 192.84 748.253C192.84 748.353 192.84 748.453 192.84 748.553L189.968 750.056C189.968 750.056 190.369 744.513 186.429 739.872C182.989 735.798 178.448 735.33 174.541 738.636C173.506 739.537 172.805 740.473 172.37 741.475C172.304 741.608 172.237 741.741 172.204 741.841C172.137 741.975 172.103 742.142 172.07 742.276C171.803 743.211 171.736 744.212 171.836 745.181C171.936 746.616 172.27 747.986 172.805 749.321L174.341 753.362C174.875 754.697 175.409 756.066 175.81 757.536C176.211 758.971 176.511 760.541 176.478 762.144C176.411 763.747 176.01 765.416 175.276 766.919L175.242 766.986ZM183.791 801.313L178.214 795.871L193.14 780.577L200.52 752.294L206.097 757.77L199.518 782.814L224.195 775.434L227.334 778.506L197.582 787.222L183.791 801.347V801.313ZM243.83 850.767L239.589 847.595L237.652 846.125L258.055 818.878L226.466 837.644L221.925 834.205L231.775 796.405L209.903 825.055L206.765 822.65L235.181 785.519V785.786L235.248 785.586L240.557 789.592H240.591L229.605 831.533L229.972 831.299L266.904 809.561L270.176 812.032L271.946 813.368L271.378 814.103L243.93 850.734L243.83 850.767ZM306.14 843.487C305.472 846.492 303.368 849.097 300.764 850.366C298.159 851.702 295.287 851.902 292.683 851.368C293.985 852.236 295.054 853.405 296.022 854.674C296.489 855.342 296.857 856.076 297.191 856.844C297.491 857.612 297.725 858.448 297.859 859.282C298.126 860.985 297.992 862.755 297.458 864.424C296.89 866.094 295.955 867.63 294.753 868.866C292.349 871.37 288.976 872.772 285.67 872.872C282.565 873.039 279.56 872.038 277.089 870.468C275.953 869.967 274.751 869.4 273.549 868.698L263.264 862.788L286.271 822.65L286.505 822.217L296.757 828.094C297.458 828.494 298.126 828.928 298.727 829.362C301.064 830.665 303.235 832.468 304.67 834.939C305.004 835.574 305.372 836.208 305.605 836.876C305.806 837.577 306.106 838.245 306.24 838.98C306.44 840.449 306.574 841.984 306.173 843.487H306.14ZM352.087 871.937C351.453 874.976 350.518 877.915 349.182 880.687C347.847 883.458 346.277 886.163 344.174 888.501C342.137 890.838 339.632 892.908 336.694 894.144C333.788 895.413 330.549 895.913 327.511 895.512C324.505 895.112 321.667 893.877 318.962 892.508C316.324 891.138 313.653 889.602 311.683 887.332C309.679 884.994 308.31 882.089 307.676 879.017C306.975 875.945 307.108 872.772 307.609 869.734C308.143 866.695 309.178 863.757 310.447 860.985C311.75 858.247 313.386 855.576 315.389 853.238C317.46 850.934 319.897 848.797 322.803 847.562C325.708 846.293 328.913 845.825 331.952 846.192C334.156 846.459 336.26 847.261 338.296 848.129C340.4 849.031 342.47 850.032 344.407 851.301C345.676 852.136 346.878 853.105 347.947 854.24C350.017 856.578 351.453 859.483 352.121 862.588C352.755 865.694 352.622 868.899 352.054 871.937H352.087ZM382.007 914.045L356.929 906.298L359.267 898.718L370.72 861.62L378.167 863.924L365.378 905.296L383.009 910.74L381.973 914.045H382.007ZM431.695 909.137C429.891 918.253 423.814 923.863 412.795 921.692C402.209 919.589 398.269 912.142 400.072 902.925L401.074 897.85L406.15 872.038L413.796 873.54L407.686 904.595C406.751 910.005 407.418 916.583 414.598 918.32C421.911 919.522 426.452 915.281 428.055 907.2L433.898 877.481L437.772 878.249L431.661 909.137H431.695ZM497.577 927.636L497.444 930.241L489.663 929.806L491.6 895.813L475.705 928.905L474.57 928.838L469.995 928.571L457.273 891.539L454.969 927.636L451.029 927.402L453.967 882.189L454.067 880.72L460.879 881.12L474.904 922.126L478.01 915.748L493.771 883.158L497.477 883.392L500.149 883.558L497.644 927.636H497.577ZM591.61 912.643C591.042 915.749 589.64 918.754 587.269 920.924C584.898 923.061 581.993 924.196 579.088 924.764C576.149 925.332 573.144 925.332 570.272 924.697C567.434 924.096 564.596 922.794 562.792 920.523L564.095 917.451C564.095 917.451 568.102 922.26 576.617 920.857C582.861 919.822 585.533 915.147 584.698 910.272C584.531 909.37 584.297 908.569 583.93 907.901C583.329 906.732 582.36 905.798 581.225 905.163C580.09 904.495 578.887 903.994 577.585 903.76C576.283 903.46 574.981 903.193 573.678 902.925L569.671 902.224C567 901.757 564.095 900.855 561.824 898.618C560.689 897.549 559.854 896.18 559.286 894.745C558.785 893.309 558.451 891.873 558.385 890.403C558.184 887.465 558.919 884.393 560.589 881.888C562.225 879.384 564.729 877.615 567.401 876.68C570.072 875.711 572.91 875.444 575.648 875.778C577.017 875.978 578.353 876.312 579.622 876.78C580.59 877.147 581.492 877.614 582.36 878.149C582.928 878.449 583.228 878.649 583.228 878.649L583.028 881.888C583.028 881.888 578.487 878.716 572.443 879.685C567.2 880.553 564.429 884.226 565.263 889.269C565.497 890.638 565.965 891.706 566.599 892.608C566.666 892.708 566.733 892.841 566.833 892.941C566.933 893.075 567.067 893.209 567.167 893.342C567.334 893.509 567.501 893.709 567.701 893.843C568.235 894.31 568.87 894.678 569.504 894.979C570.773 895.613 572.142 896.047 573.545 896.28L577.786 897.048C579.221 897.282 580.657 897.516 582.126 897.917C583.562 898.317 585.065 898.852 586.434 899.72C587.77 900.622 589.005 901.79 589.94 903.193C590.809 904.595 591.376 906.165 591.61 907.735C591.91 909.371 591.844 911.04 591.61 912.61V912.643ZM641.565 908.602L638.359 909.47L634.051 910.639L625.67 897.983L609.875 902.291L608.94 917.451L605.267 918.453L608.172 869.2L614.317 867.53L641.531 908.569L641.565 908.602ZM681.535 893.476L648.61 869.233L661.567 901.49L657.893 902.959L640.496 859.549L645.772 857.446L648.911 859.783L681.869 884.026L667.711 848.663L667.778 848.83L667.711 848.63L671.384 847.161L688.414 889.635L688.815 890.571L681.535 893.443V893.476ZM707.214 881.622L685.843 840.015L686.978 839.413L688.547 838.612L692.788 836.442L714.159 878.048L707.214 881.622ZM742.476 861.987L741.307 862.688L736.699 865.493L714.126 828.527L703.975 834.672L702.172 831.734L729.653 815.071L731.457 818.009L720.771 824.487L743.311 861.453L742.443 861.987H742.476ZM782.947 834.205L770.626 825.389L757.402 835.106L761.977 849.598L758.905 851.869L743.912 804.853L749.088 801.046L749.188 800.912L788.758 829.263L789.225 829.596L782.947 834.205ZM802.749 817.876L774.098 785.385L765.083 793.333L762.812 790.728L786.954 769.49L789.225 772.095L779.975 780.242L808.593 812.733L802.749 817.876ZM831.199 791.028L828.294 794L827.426 794.869L794.067 762.077L799.543 756.501L832.902 789.292L831.199 791.028ZM859.115 758.238C858.714 761.41 857.212 764.148 855.375 766.485C853.505 768.823 851.234 770.759 848.63 772.162C846.059 773.531 843.087 774.399 840.215 773.865L839.247 770.659C839.247 770.659 845.424 771.727 850.967 765.116C855.041 760.274 854.039 754.998 850.233 751.792C849.498 751.191 848.797 750.757 848.062 750.457C846.86 749.989 845.524 749.922 844.289 750.123C842.987 750.356 841.751 750.758 840.582 751.425C839.414 752.026 838.245 752.694 837.076 753.328L833.57 755.399C831.232 756.768 828.428 757.97 825.255 757.77C823.686 757.703 822.15 757.202 820.847 756.468C819.545 755.733 818.343 754.831 817.341 753.729C815.271 751.592 813.835 748.82 813.501 745.848C813.134 742.876 813.902 739.904 815.304 737.467C816.707 734.996 818.711 732.959 820.981 731.423C822.15 730.689 823.385 730.088 824.654 729.62C825.689 729.253 826.758 729.019 827.86 728.852C828.16 728.785 828.394 728.752 828.494 728.752C828.528 728.752 828.561 728.752 828.594 728.752L830.565 731.357C830.565 731.357 825.055 731.891 821.115 736.566C817.675 740.64 817.976 745.214 821.883 748.486C822.784 749.254 823.686 749.755 824.621 750.056C824.921 750.156 825.222 750.223 825.556 750.29C825.656 750.29 825.756 750.29 825.856 750.323C826.858 750.457 827.893 750.323 828.862 750.089C830.231 749.755 831.566 749.188 832.802 748.453L836.542 746.283C837.777 745.515 839.046 744.78 840.415 744.145C841.785 743.511 843.254 742.943 844.857 742.743C846.459 742.543 848.162 742.643 849.765 743.144C851.368 743.645 852.771 744.48 853.973 745.515C855.275 746.55 856.31 747.885 857.112 749.221C858.714 751.959 859.549 755.131 859.182 758.337L859.115 758.238Z" fill="white" fill-opacity="0.05"/>
<path d="M286.839 850.266L281.229 847.06L271.546 863.957L274.885 865.861C281.63 869.734 286.706 868.832 290.178 862.754C293.384 857.145 291.314 852.804 286.839 850.232V850.266Z" fill="white" fill-opacity="0.05"/>
<path d="M87.9885 611.712C87.9885 617.522 92.6968 622.231 98.5071 622.231C104.317 622.231 109.026 617.522 109.026 611.712C109.026 605.902 104.317 601.194 98.5071 601.194C92.6968 601.194 87.9885 605.902 87.9885 611.712Z" fill="white" fill-opacity="0.05"/>
<path d="M82.1115 511.669C77.1027 511.669 73.0288 515.743 73.0288 520.752C73.0288 525.761 77.1027 529.834 82.1115 529.834C87.1203 529.834 91.1942 525.761 91.1942 520.752C91.1942 515.743 87.1203 511.669 82.1115 511.669Z" fill="white" fill-opacity="0.05"/>
<path d="M84.6826 417.57C79.9409 417.57 76.1008 421.41 76.1008 426.151C76.1008 430.893 79.9409 434.733 84.6826 434.733C89.4243 434.733 93.2644 430.893 93.2644 426.151C93.2644 421.41 89.4243 417.57 84.6826 417.57Z" fill="white" fill-opacity="0.05"/>
<path d="M108.525 327.677C103.783 327.677 99.9763 331.518 99.9763 336.226C99.9763 340.934 103.816 344.775 108.525 344.775C113.233 344.775 117.073 340.934 117.073 336.226C117.073 331.518 113.233 327.677 108.525 327.677Z" fill="white" fill-opacity="0.05"/>
<path d="M262.763 67.5523C264.567 66.9513 265.401 66.7509 265.735 66.6841C268.106 66.3168 270.143 67.1516 272.013 69.2554C273.683 71.0251 275.953 74.7319 278.758 80.3084L295.521 113.701C298.293 119.21 299.862 123.151 300.263 125.522C300.864 128.26 300.33 130.43 298.66 132.1L295.287 134.638L296.49 137.075L334.857 117.841C341.402 114.569 346.077 109.994 348.682 104.317C351.353 98.5403 351.019 92.2623 347.713 85.6841C344.975 80.2077 340.601 76.8351 334.69 75.5996C330.55 74.7314 326.108 74.9323 321.367 76.2012C322.168 75.5 322.903 74.7649 323.571 74.0636C329.748 67.7859 330.95 60.7401 327.11 53.1266C321.5 41.9403 311.216 40.037 296.49 47.4167L260.526 65.4482L261.762 67.8866L262.763 67.5523ZM319.831 84.4156C323.07 85.5843 326.209 89.157 329.114 94.9672C332.52 101.746 333.855 106.855 333.188 110.127C332.453 112.966 330.917 114.903 328.579 116.071L327.377 116.672C324.439 118.141 322.101 117.775 319.964 115.504C318.328 113.834 316.492 110.929 314.455 106.888L304.671 87.3537L308.878 85.2504C312.651 83.347 316.258 83.0464 319.831 84.3487V84.4156ZM293.384 53.6614L294.686 53.0264C296.289 52.225 297.792 51.8247 299.194 51.8247C300.43 51.8247 301.632 52.1253 302.801 52.7264C305.405 54.0954 307.81 57.0001 310.013 61.4079C312.685 66.7172 313.82 70.9581 313.453 73.9634C312.985 77.0021 310.815 79.4731 306.841 81.4766L302.734 83.5473L293.317 64.7805C291.982 62.1091 291.113 60.072 290.746 58.7697C290.312 56.3989 291.147 54.7968 293.384 53.6614Z" fill="white" fill-opacity="0.05"/>
<path d="M368.617 96.1701C372.691 98.2739 376.798 99.3422 380.972 99.3422C383.476 99.3422 386.014 98.9412 388.519 98.1732C395.231 96.1363 400.406 91.8292 403.912 85.3845C407.419 78.9398 407.953 71.5934 405.515 63.5124C403.044 55.4649 398.47 49.6542 391.925 46.2815C385.38 42.9089 378.701 42.2415 372.056 44.2451C365.344 46.282 360.169 50.5899 356.662 57.0346C353.156 63.4793 352.622 70.8249 355.06 78.9058C357.531 86.9533 362.072 92.7641 368.584 96.1367L368.617 96.1701ZM369.652 50.6561C370.22 49.2202 371.355 48.2523 373.125 47.718C373.793 47.5176 374.427 47.4172 374.995 47.4172C375.93 47.4172 376.765 47.6843 377.499 48.2185C379.469 49.621 382.742 54.3627 387.216 69.0887C391.724 83.9148 391.691 89.692 390.856 91.9293C390.288 93.3651 389.187 94.2997 387.484 94.834C385.714 95.3682 384.244 95.1681 382.942 94.2331C380.939 92.7973 377.566 88.0556 373.125 73.3964C368.583 58.5035 368.717 52.8266 369.652 50.6561Z" fill="white" fill-opacity="0.05"/>
<path d="M415.967 87.6881C417.303 88.6564 418.839 89.1571 420.475 89.1571C420.909 89.1571 421.343 89.1236 421.811 89.0569C425.684 88.4558 428.189 86.319 429.291 82.7127C430.292 79.4068 430.593 74.4646 430.226 67.5524C430.226 67.3187 429.925 64.08 429.424 57.9025C428.89 51.5579 428.456 46.9495 428.088 44.2447C427.922 41.3062 428.122 39.136 428.756 37.8337C429.291 36.6984 430.426 36.0301 432.229 35.763C435.335 35.2621 436.236 36.5314 436.57 36.9989C436.904 37.433 437.572 38.6351 438.073 42.0077L442.38 69.9232C442.948 73.4961 443.215 76.0005 443.215 77.403C443.215 79.5735 442.547 80.9762 441.078 81.7776C440.577 82.0447 440.11 82.2113 439.642 82.2781L438.44 82.4787L438.874 85.3508L468.894 80.7088L468.46 77.8375L467.258 78.0373C466.723 78.104 466.122 78.104 465.521 78.0373C463.885 77.7033 462.783 76.8358 462.148 75.3665C461.581 73.9641 460.88 70.5579 460.045 65.2152L456.873 44.645C456.105 39.7698 455.771 36.3972 455.871 34.6608C455.971 32.9244 456.739 31.6223 458.242 30.7541C458.242 30.7541 458.709 30.5541 460.011 30.1867L461.047 29.8859L460.612 27.1475L416.101 34.0265L416.535 36.7983L417.67 36.6981C419.406 36.5645 420.709 36.7646 421.51 37.2989C422.278 37.7998 422.846 38.8682 423.247 40.471C423.58 41.7733 423.814 43.1759 423.914 44.7453C425.05 54.5292 425.718 62.2432 425.885 67.6861C426.085 71.3259 425.885 73.0291 425.651 73.7638C425.417 74.5318 425.117 74.9321 424.749 74.9989C424.716 74.9989 424.348 75.0326 423.313 74.5317C421.811 73.5633 420.275 73.1624 418.739 73.4295C416.702 73.73 415.065 74.7984 413.93 76.5682C412.828 78.2712 412.427 80.2414 412.795 82.4453C413.229 84.6825 414.297 86.4525 416 87.6881H415.967Z" fill="white" fill-opacity="0.05"/>
<path d="M472.5 29.3853C474.069 29.5523 474.537 29.7522 474.67 29.7856L474.804 29.8524C475.906 30.2531 476.707 31.1215 477.275 32.524C477.509 33.0916 477.91 35.2618 478.077 43.0756L478.511 63.8789C478.677 71.7595 478.243 73.9967 477.909 74.698C477.442 76.0003 476.707 76.8686 475.672 77.3695C475.171 77.6033 474.47 77.7372 473.635 77.7706H472.4L472.467 80.7087L504.089 80.0745L504.022 77.169H502.82C501.852 77.2023 501.017 77.1027 500.416 76.8689C499.28 76.4015 498.546 75.6336 498.112 74.5317L498.012 74.3311C497.611 73.6633 496.876 71.3258 496.743 63.4786L496.142 34.1602C496.108 32.0231 496.442 31.1214 496.643 30.7875C496.91 30.3534 497.544 30.1198 498.513 30.1198C500.616 30.0864 502.687 31.6221 504.723 34.761C507.996 39.703 510.868 44.4447 513.239 48.9193L513.606 49.5869L516.177 49.5209L514.941 25.5781L471.431 26.4464L471.498 29.2182L472.567 29.3184L472.5 29.3853Z" fill="white" fill-opacity="0.05"/>
<path d="M559.754 81.4767L558.719 81.2101C556.648 80.6758 555.146 80.0412 554.244 79.3065L554.144 79.2397C552.508 78.1711 551.573 76.5349 551.339 74.1974C550.972 71.8934 551.139 67.686 551.84 61.7422L556.749 20.3027C557.45 14.3589 559.086 10.6857 561.657 9.38341C562.793 8.78235 564.362 8.61487 566.332 8.84861L567.234 8.94889C570.74 9.65012 573.445 12.3549 575.582 17.2635C577.853 21.5711 579.99 27.3811 581.96 34.5605L582.16 35.3627L584.965 35.6961L585.933 6.67844L529.434 0L529.067 3.13867L530.269 3.27237C531.17 3.37255 532.139 3.63959 533.074 4.0069C535.244 5.00867 536.513 6.77891 536.914 9.48369C537.348 11.8879 537.181 16.195 536.48 22.3058L532.105 59.4049C531.404 65.3153 530.636 69.4557 529.801 71.693C528.933 73.8969 527.731 75.2995 525.994 76.0007C525.627 76.1677 524.525 76.535 521.353 76.8355L520.385 76.9358L520.084 79.6074L559.453 84.2819L559.787 81.5435L559.754 81.4767Z" fill="white" fill-opacity="0.05"/>
<path d="M580.457 85.4508L604.9 93.3644L605.735 90.7931L601.561 88.5227C600.092 87.2538 599.29 85.5506 599.157 83.3133C599.023 79.0391 599.758 74.3979 601.327 69.5227L612.914 33.7255L613.215 96.4028L619.493 98.4401L654.588 46.5818L642.767 83.0793C640.864 88.9563 639.227 92.9636 637.892 95.0006C636.356 97.4382 634.452 98.6071 632.081 98.5403C631.38 98.5403 630.345 98.373 628.943 98.1058L627.874 97.8727L627.006 100.51L664.439 112.598L665.273 109.994L664.305 109.527C662.435 108.625 661.734 108.224 661.433 108.023C659.563 106.788 658.728 104.751 658.962 101.779C659.062 99.1413 660.064 94.9339 661.867 89.2572L673.354 53.6948C675.124 48.1851 676.794 44.2112 678.33 41.807C679.732 39.5363 681.569 38.4677 683.906 38.4343C685.042 38.5011 686.043 38.6678 686.945 38.9683L688.114 39.336L689.082 36.3302L662.068 27.5819L634.118 68.1865L634.319 18.5995L605.301 9.21613L604.366 12.1208L605.434 12.5553C606.436 12.9561 607.271 13.4233 608.006 13.9576C609.976 15.2933 610.944 17.1631 610.944 19.7344C611.111 22.94 609.742 28.951 606.937 37.6329L597.086 68.1197C595.283 73.7296 593.246 77.937 591.009 80.6417C589.74 82.3447 588.104 83.2466 586 83.447L581.292 82.8462L580.457 85.4174V85.4508Z" fill="white" fill-opacity="0.05"/>
<path d="M683.706 101.145C681.268 101.947 679.231 103.749 677.662 106.454C675.458 110.328 675.057 114.168 676.493 117.841C677.896 121.414 680.333 124.219 683.739 126.189C686.143 127.559 688.648 128.259 691.286 128.259C693.557 128.259 695.927 127.759 698.332 126.723C703.274 124.62 709.618 120.479 717.131 114.469L746.483 91.0608C751.325 87.1539 755.232 84.549 758.137 83.2801C760.875 82.078 763.714 82.0445 766.819 83.1464L767.788 83.4807L769.123 81.1434L746.75 68.3539L745.916 71.1591L746.65 71.6597C748.42 72.8284 749.555 74.1975 750.123 75.8337C750.657 77.3698 750.424 78.9725 749.422 80.7089C748.287 82.679 746.116 85.0167 743.01 87.5879L726.314 101.279L728.151 76.0009C728.418 72.7284 729.086 70.0902 730.154 68.2202C731.156 66.4838 733.026 64.4471 737.868 66.818L738.903 67.3185L740.372 64.7473L703.908 43.8771L702.539 46.2813L703.24 46.9498C705.711 49.2872 707.247 51.5906 707.782 53.7945C708.349 56.0652 708.416 59.7049 708.049 64.6136L703.942 117.908C695.961 123.318 692.288 123.317 690.585 122.349C690.05 122.048 690.017 121.781 689.984 121.715C689.917 121.447 690.05 121.014 690.351 120.48C690.485 120.246 690.919 119.644 692.254 118.108C693.423 116.772 694.358 115.37 695.026 113.867C695.961 111.73 696.161 109.56 695.594 107.456C695.026 105.286 693.59 103.482 691.286 102.18C688.715 100.711 686.144 100.377 683.639 101.212L683.706 101.145Z" fill="white" fill-opacity="0.05"/>
</svg>
